<?xml version="1.0" encoding="utf-8"?>
<!-- Generator: Adobe Illustrator 19.1.0, SVG Export Plug-In . SVG Version: 6.00 Build 0)  -->
<svg version="1.1" id="Layer_1" xmlns="http://www.w3.org/2000/svg" xmlns:xlink="http://www.w3.org/1999/xlink" x="0px" y="0px"
	 viewBox="0 0 198.1 50.6" style="enable-background:new 0 0 198.1 50.6;" xml:space="preserve">
<style type="text/css">
	.st0{fill:#FFFFFF;}
</style>
<g>
	<path class="st0" d="M23.7,11.2c0,3.7-1.2,6.5-3.5,8.5s-5.6,2.9-9.8,2.9H7.3v12.2H0V0.5H11c4.2,0,7.3,0.9,9.5,2.7
		S23.7,7.7,23.7,11.2z M7.3,16.7h2.4c2.2,0,3.9-0.4,5-1.3s1.7-2.2,1.7-3.9c0-1.7-0.5-3-1.4-3.8s-2.4-1.2-4.4-1.2H7.3V16.7z"/>
	<path class="st0" d="M30.2,34.8V0.5h7.3v34.3H30.2z"/>
	<path class="st0" d="M65.6,0.5H73L61.3,34.8h-7.9L41.8,0.5h7.3l6.4,20.4c0.4,1.2,0.7,2.6,1.1,4.2s0.6,2.7,0.7,3.3
		c0.2-1.4,0.8-4,1.8-7.5L65.6,0.5z"/>
	<path class="st0" d="M108.4,17.6c0,5.7-1.4,10-4.2,13.1s-6.8,4.6-12.1,4.6s-9.3-1.5-12.1-4.6s-4.2-7.4-4.2-13.1S77.2,7.5,80,4.5
		S86.8,0,92.1,0s9.3,1.5,12.1,4.5S108.4,11.9,108.4,17.6z M83.4,17.6c0,3.8,0.7,6.7,2.2,8.6s3.6,2.9,6.5,2.9c5.8,0,8.7-3.9,8.7-11.6
		c0-7.7-2.9-11.6-8.6-11.6C89.2,6,87,7,85.6,9S83.4,13.8,83.4,17.6z"/>
	<path class="st0" d="M128.7,34.8h-7.3V6.6h-9.3v-6H138v6h-9.3V34.8z"/>
	<path class="st0" d="M164.2,34.8l-2.5-8.2h-12.5l-2.5,8.2H139l12.1-34.4h8.9l12.1,34.4H164.2z M160,20.6
		c-2.3-7.4-3.6-11.6-3.9-12.5s-0.5-1.7-0.6-2.3c-0.5,2-2,6.9-4.4,14.8H160z"/>
	<path class="st0" d="M176.4,34.8V0.5h7.3v28.3h13.9v6H176.4z"/>
</g>
<g>
	<path class="st0" d="M8.2,50.5H5.7l-4-7H1.6c0.1,1.2,0.1,2.1,0.1,2.7v4.4H0v-9.3h2.5l4,7h0c-0.1-1.2-0.1-2.1-0.1-2.6v-4.4h1.8V50.5
		z"/>
	<path class="st0" d="M13.9,50.6c-1.1,0-2-0.3-2.7-0.9c-0.6-0.6-1-1.5-1-2.7c0-1.2,0.3-2.1,0.9-2.8c0.6-0.6,1.4-1,2.5-1
		c1,0,1.8,0.3,2.3,0.9s0.8,1.4,0.8,2.4v0.9h-4.6c0,0.6,0.2,1,0.5,1.3s0.7,0.5,1.3,0.5c0.4,0,0.8,0,1.2-0.1s0.8-0.2,1.2-0.4v1.5
		c-0.3,0.2-0.7,0.3-1.1,0.4C14.9,50.5,14.4,50.6,13.9,50.6z M13.6,44.6c-0.4,0-0.7,0.1-1,0.4c-0.2,0.3-0.4,0.6-0.4,1.1H15
		c0-0.5-0.1-0.8-0.4-1.1C14.4,44.7,14,44.6,13.6,44.6z"/>
	<path class="st0" d="M24.5,50.5L23.9,48l-0.7-3.1h0l-1.3,5.6h-2.1l-2-7.1h1.9l0.8,3.1c0.1,0.6,0.3,1.3,0.4,2.3h0
		c0-0.3,0.1-0.8,0.2-1.5l0.1-0.5l0.9-3.4h2.1l0.8,3.4c0,0.1,0,0.2,0.1,0.4c0,0.2,0.1,0.4,0.1,0.6s0.1,0.4,0.1,0.6c0,0.2,0,0.4,0,0.5
		h0c0-0.3,0.1-0.7,0.2-1.3s0.2-0.9,0.2-1.1l0.9-3.1h1.9l-2,7.1H24.5z"/>
	<path class="st0" d="M35,48.3c0,0.7-0.3,1.3-0.8,1.7c-0.5,0.4-1.3,0.6-2.3,0.6c-0.5,0-1,0-1.3-0.1c-0.4-0.1-0.7-0.2-1-0.3v-1.6
		c0.4,0.2,0.8,0.3,1.2,0.4c0.5,0.1,0.8,0.2,1.2,0.2c0.7,0,1.1-0.2,1.1-0.6c0-0.2,0-0.3-0.1-0.4c-0.1-0.1-0.3-0.2-0.5-0.3
		c-0.2-0.1-0.5-0.3-0.9-0.4c-0.5-0.2-0.9-0.4-1.2-0.6c-0.3-0.2-0.4-0.4-0.6-0.7c-0.1-0.3-0.2-0.6-0.2-0.9c0-0.6,0.2-1.1,0.7-1.5
		c0.5-0.3,1.2-0.5,2.1-0.5c0.9,0,1.7,0.2,2.5,0.6l-0.6,1.4c-0.4-0.2-0.7-0.3-1-0.4s-0.6-0.1-0.9-0.1c-0.6,0-0.9,0.2-0.9,0.5
		c0,0.2,0.1,0.3,0.3,0.5c0.2,0.1,0.6,0.3,1.2,0.6c0.6,0.2,1,0.4,1.2,0.6c0.3,0.2,0.4,0.4,0.6,0.7S35,48,35,48.3z"/>
	<path class="st0" d="M44.3,44.8h-1.7v5.6h-1.9v-5.6h-1.1v-0.9l1.1-0.5v-0.5c0-0.8,0.2-1.4,0.6-1.8c0.4-0.4,1-0.6,1.9-0.6
		c0.7,0,1.3,0.1,1.8,0.3l-0.5,1.4c-0.4-0.1-0.7-0.2-1.1-0.2c-0.3,0-0.5,0.1-0.6,0.2c-0.1,0.2-0.2,0.4-0.2,0.6v0.4h1.7V44.8z"/>
	<path class="st0" d="M52.1,46.9c0,1.2-0.3,2.1-0.9,2.7s-1.5,1-2.5,1c-0.7,0-1.3-0.1-1.8-0.4c-0.5-0.3-0.9-0.7-1.2-1.3
		s-0.4-1.2-0.4-2c0-1.2,0.3-2.1,0.9-2.7c0.6-0.6,1.5-1,2.6-1c0.7,0,1.3,0.1,1.8,0.4c0.5,0.3,0.9,0.7,1.2,1.3S52.1,46.1,52.1,46.9z
		 M47.2,46.9c0,0.7,0.1,1.2,0.3,1.6c0.2,0.4,0.6,0.5,1.1,0.5c0.5,0,0.9-0.2,1.1-0.5c0.2-0.4,0.3-0.9,0.3-1.6c0-0.7-0.1-1.2-0.3-1.6
		s-0.6-0.5-1.1-0.5c-0.5,0-0.9,0.2-1.1,0.5C47.3,45.7,47.2,46.2,47.2,46.9z"/>
	<path class="st0" d="M57.9,43.2c0.3,0,0.5,0,0.7,0.1l-0.1,1.8c-0.2,0-0.3-0.1-0.6-0.1c-0.6,0-1.1,0.2-1.4,0.5
		c-0.3,0.3-0.5,0.8-0.5,1.3v3.6H54v-7.1h1.5l0.3,1.2h0.1c0.2-0.4,0.5-0.7,0.9-1C57.1,43.3,57.5,43.2,57.9,43.2z"/>
	<path class="st0" d="M71.5,41.2v6c0,0.7-0.2,1.3-0.5,1.8c-0.3,0.5-0.8,0.9-1.3,1.2c-0.6,0.3-1.3,0.4-2.1,0.4
		c-1.2,0-2.1-0.3-2.8-0.9c-0.7-0.6-1-1.4-1-2.5v-6h2v5.7c0,0.7,0.1,1.2,0.4,1.6c0.3,0.3,0.8,0.5,1.4,0.5c0.6,0,1.1-0.2,1.4-0.5
		c0.3-0.3,0.4-0.9,0.4-1.6v-5.7H71.5z"/>
	<path class="st0" d="M83,50.5h-2.2l-1.3-4.9c0-0.2-0.1-0.5-0.2-1.1c-0.1-0.5-0.2-0.9-0.2-1.1c0,0.2-0.1,0.6-0.2,1.1
		c-0.1,0.5-0.2,0.9-0.2,1.1l-1.3,4.9h-2.2l-2.4-9.3h1.9l1.2,5.1c0.2,0.9,0.4,1.7,0.5,2.4c0-0.2,0.1-0.6,0.2-1.1
		c0.1-0.5,0.2-0.9,0.3-1.2l1.4-5.2h1.9l1.4,5.2c0.1,0.2,0.1,0.6,0.2,1.1c0.1,0.5,0.2,0.9,0.2,1.2c0-0.3,0.1-0.7,0.2-1.2
		s0.2-0.9,0.3-1.2l1.2-5.1h1.9L83,50.5z"/>
	<path class="st0" d="M86.1,47.8v-1.6h3.4v1.6H86.1z"/>
	<path class="st0" d="M95.2,50.5L93,43.2h-0.1c0.1,1.5,0.1,2.5,0.1,3v4.3h-1.8v-9.3H94l2.2,7.1h0l2.3-7.1h2.7v9.3h-1.8v-4.4
		c0-0.2,0-0.4,0-0.7c0-0.3,0-1,0.1-2.2h-0.1L97,50.5H95.2z"/>
	<path class="st0" d="M108.1,50.5l-0.4-1h-0.1c-0.3,0.4-0.7,0.7-1,0.9c-0.3,0.2-0.8,0.2-1.3,0.2c-0.7,0-1.2-0.2-1.6-0.6
		c-0.4-0.4-0.6-0.9-0.6-1.7c0-0.8,0.3-1.3,0.8-1.7c0.5-0.4,1.3-0.6,2.4-0.6l1.2,0v-0.3c0-0.7-0.4-1.1-1.1-1.1c-0.6,0-1.2,0.2-2,0.5
		l-0.6-1.3c0.8-0.4,1.7-0.6,2.7-0.6c1,0,1.7,0.2,2.2,0.6c0.5,0.4,0.8,1,0.8,1.9v4.7H108.1z M107.6,47.2l-0.7,0c-0.6,0-1,0.1-1.3,0.3
		s-0.4,0.5-0.4,0.9c0,0.5,0.3,0.8,0.9,0.8c0.4,0,0.8-0.1,1.1-0.4c0.3-0.3,0.4-0.6,0.4-1V47.2z"/>
	<path class="st0" d="M114,50.6c-0.8,0-1.5-0.3-2-1c-0.5-0.6-0.7-1.5-0.7-2.7c0-1.2,0.2-2.1,0.7-2.7c0.5-0.6,1.2-1,2-1
		c0.9,0,1.6,0.3,2,1h0.1c-0.1-0.5-0.1-1-0.1-1.4v-2.3h1.9v9.9h-1.5l-0.4-0.9H116C115.6,50.2,114.9,50.6,114,50.6z M114.7,49
		c0.5,0,0.9-0.1,1.1-0.4c0.2-0.3,0.4-0.8,0.4-1.5v-0.2c0-0.8-0.1-1.3-0.4-1.6c-0.2-0.3-0.6-0.5-1.1-0.5c-0.4,0-0.8,0.2-1,0.5
		c-0.2,0.4-0.4,0.9-0.4,1.6c0,0.7,0.1,1.2,0.4,1.6C113.9,48.9,114.2,49,114.7,49z"/>
	<path class="st0" d="M120.2,41.5c0-0.6,0.4-0.9,1.1-0.9s1.1,0.3,1.1,0.9c0,0.3-0.1,0.5-0.3,0.7c-0.2,0.2-0.4,0.3-0.8,0.3
		C120.5,42.5,120.2,42.2,120.2,41.5z M122.2,50.5h-1.9v-7.1h1.9V50.5z"/>
	<path class="st0" d="M129.4,48.3c0,0.7-0.3,1.3-0.8,1.7s-1.3,0.6-2.3,0.6c-0.5,0-1,0-1.3-0.1c-0.4-0.1-0.7-0.2-1-0.3v-1.6
		c0.4,0.2,0.8,0.3,1.2,0.4c0.5,0.1,0.8,0.2,1.2,0.2c0.7,0,1.1-0.2,1.1-0.6c0-0.2,0-0.3-0.1-0.4c-0.1-0.1-0.3-0.2-0.5-0.3
		c-0.2-0.1-0.5-0.3-0.9-0.4c-0.5-0.2-0.9-0.4-1.2-0.6c-0.3-0.2-0.4-0.4-0.6-0.7c-0.1-0.3-0.2-0.6-0.2-0.9c0-0.6,0.2-1.1,0.7-1.5
		c0.5-0.3,1.2-0.5,2.1-0.5c0.9,0,1.7,0.2,2.5,0.6l-0.6,1.4c-0.4-0.2-0.7-0.3-1-0.4c-0.3-0.1-0.6-0.1-0.9-0.1c-0.6,0-0.9,0.2-0.9,0.5
		c0,0.2,0.1,0.3,0.3,0.5c0.2,0.1,0.6,0.3,1.2,0.6c0.6,0.2,1,0.4,1.2,0.6c0.3,0.2,0.4,0.4,0.6,0.7C129.4,47.7,129.4,48,129.4,48.3z"
		/>
	<path class="st0" d="M137.6,46.9c0,1.2-0.3,2.1-0.9,2.7s-1.5,1-2.5,1c-0.7,0-1.3-0.1-1.8-0.4c-0.5-0.3-0.9-0.7-1.2-1.3
		s-0.4-1.2-0.4-2c0-1.2,0.3-2.1,0.9-2.7c0.6-0.6,1.5-1,2.6-1c0.7,0,1.3,0.1,1.8,0.4c0.5,0.3,0.9,0.7,1.2,1.3S137.6,46.1,137.6,46.9z
		 M132.7,46.9c0,0.7,0.1,1.2,0.3,1.6c0.2,0.4,0.6,0.5,1.1,0.5c0.5,0,0.9-0.2,1.1-0.5s0.3-0.9,0.3-1.6c0-0.7-0.1-1.2-0.3-1.6
		s-0.6-0.5-1.1-0.5c-0.5,0-0.9,0.2-1.1,0.5C132.8,45.7,132.7,46.2,132.7,46.9z"/>
	<path class="st0" d="M146,50.5h-1.9v-4.1c0-0.5-0.1-0.9-0.3-1.2c-0.2-0.3-0.5-0.4-0.9-0.4c-0.5,0-0.9,0.2-1.2,0.5
		c-0.2,0.4-0.4,1-0.4,1.8v3.3h-1.9v-7.1h1.5l0.3,0.9h0.1c0.2-0.3,0.5-0.6,0.9-0.8s0.8-0.3,1.3-0.3c0.8,0,1.5,0.2,1.9,0.7
		c0.4,0.4,0.6,1.1,0.6,1.9V50.5z"/>
	<path class="st0" d="M157.8,50.5l-0.7-2.2h-3.4l-0.7,2.2h-2.1l3.3-9.3h2.4l3.3,9.3H157.8z M156.6,46.6c-0.6-2-1-3.1-1-3.4
		c-0.1-0.3-0.1-0.5-0.2-0.6c-0.1,0.5-0.5,1.9-1.2,4H156.6z"/>
	<path class="st0" d="M163.1,50.5h-1.9v-9.9h1.9V50.5z"/>
	<path class="st0" d="M170.4,50.5l-0.3-0.9h-0.1c-0.2,0.3-0.5,0.6-0.9,0.8s-0.8,0.3-1.3,0.3c-0.8,0-1.5-0.2-1.9-0.7
		c-0.4-0.4-0.6-1.1-0.6-1.9v-4.6h1.9v4.1c0,0.5,0.1,0.9,0.3,1.2c0.2,0.3,0.5,0.4,0.9,0.4c0.5,0,0.9-0.2,1.2-0.5
		c0.2-0.4,0.4-1,0.4-1.8v-3.3h1.9v7.1H170.4z"/>
	<path class="st0" d="M180.6,50.5h-1.9v-4.1c0-0.5-0.1-0.9-0.3-1.2c-0.2-0.3-0.4-0.4-0.8-0.4c-0.5,0-0.9,0.2-1.1,0.5
		c-0.2,0.4-0.3,1-0.3,1.8v3.3h-1.9v-7.1h1.5l0.3,0.9h0.1c0.2-0.3,0.5-0.6,0.8-0.8c0.4-0.2,0.8-0.3,1.2-0.3c1.1,0,1.8,0.3,2.2,1h0.2
		c0.2-0.3,0.5-0.6,0.8-0.8s0.8-0.3,1.3-0.3c0.8,0,1.4,0.2,1.8,0.6c0.4,0.4,0.6,1.1,0.6,2v4.6H183v-4.1c0-0.5-0.1-0.9-0.3-1.2
		c-0.2-0.3-0.4-0.4-0.8-0.4c-0.5,0-0.8,0.2-1.1,0.5c-0.2,0.3-0.4,0.9-0.4,1.6V50.5z"/>
	<path class="st0" d="M193.8,50.5h-1.9v-4.1c0-0.5-0.1-0.9-0.3-1.2c-0.2-0.3-0.5-0.4-0.9-0.4c-0.5,0-0.9,0.2-1.2,0.5
		c-0.2,0.4-0.4,1-0.4,1.8v3.3h-1.9v-7.1h1.5l0.3,0.9h0.1c0.2-0.3,0.5-0.6,0.9-0.8s0.8-0.3,1.3-0.3c0.8,0,1.5,0.2,1.9,0.7
		c0.4,0.4,0.6,1.1,0.6,1.9V50.5z"/>
	<path class="st0" d="M195.9,41.5c0-0.6,0.4-0.9,1.1-0.9c0.7,0,1.1,0.3,1.1,0.9c0,0.3-0.1,0.5-0.3,0.7s-0.4,0.3-0.8,0.3
		C196.3,42.5,195.9,42.2,195.9,41.5z M198,50.5H196v-7.1h1.9V50.5z"/>
</g>
</svg>
